# xmcd
#
# Track frame offsets:
#	150
#	12882
#	21825
#	41340
#	62785
#	71975
#	84325
#	108530
#	122732
#	141092
#	153550
#	166532
#	179067
#	197140
#
# Disc length: 2859 seconds
# Revision: 1
# Processed by: cddbd v1.5.2PL0 Copyright (c) Steve Scherf et al.
# Submitted via: dBpowerAMP V12.0
#
DISCID=be0b290e
DTITLE=Muldoon Brothers - Six Guns One Horse
DYEAR=1995
DGENRE=Folk/Rock
TTITLE0=Shit Kickin Time
TTITLE1=Dance Of The Old Swamp Rat
TTITLE2=Rawhide Medley
TTITLE3=Hog Back County
TTITLE4=Fiddlin
TTITLE5=Hard Hearted
TTITLE6=Gimme Moonshine
TTITLE7=Orange Blossom Special
TTITLE8=Girl Who Thought Him Handsome
TTITLE9=Yonder Comes a Sucker
TTITLE10=Tennessee Flat Top Box
TTITLE11=Banjo Medley (Whacky Races)
TTITLE12=Mother
TTITLE13=Ghost Riders In The Sky
EXTD=
EXTT0=
EXTT1=
EXTT2=
EXTT3=
EXTT4=
EXTT5=
EXTT6=
EXTT7=
EXTT8=
EXTT9=
EXTT10=
EXTT11=
EXTT12=
EXTT13=
PLAYORDER=
